<svg width="717" height="1024" viewBox="0 0 717 1024" fill="none" xmlns="http://www.w3.org/2000/svg">
<g opacity="0.5" clip-path="url(#clip0_2006_14394)">
<mask id="mask0_2006_14394" style="mask-type:alpha" maskUnits="userSpaceOnUse" x="-473" y="-47" width="1758" height="1169">
<rect x="-473" y="-47" width="1757.09" height="1168.81" fill="url(#paint0_diamond_2006_14394)"/>
</mask>
<g mask="url(#mask0_2006_14394)">
<circle cx="604.102" cy="688.622" r="1.1824" fill="white" fill-opacity="0.5"/>
<circle cx="191.382" cy="562.903" r="1.46308" fill="white" fill-opacity="0.3"/>
<circle cx="78.9998" cy="602.52" r="1.08059" fill="white" fill-opacity="0.6"/>
<circle cx="403.951" cy="922.471" r="1.03193" fill="white" fill-opacity="0.4"/>
<circle cx="320.102" cy="790.622" r="1.18288" fill="white" fill-opacity="0.4"/>
<circle cx="650.333" cy="726.854" r="1.41413" fill="white" fill-opacity="0.5"/>
<circle cx="71.9693" cy="500.49" r="1.05007" fill="white" fill-opacity="0.6"/>
<circle cx="99.3024" cy="864.823" r="1.38322" fill="white" fill-opacity="0.4"/>
<circle cx="81.2313" cy="946.752" r="1.31212" fill="white" fill-opacity="0.3"/>
<circle cx="92.9331" cy="202.453" r="1.01394" fill="white" fill-opacity="0.5"/>
<circle cx="294.086" cy="384.606" r="1.1664" fill="white" fill-opacity="0.6"/>
<circle cx="90.2066" cy="300.727" r="1.2874" fill="white" fill-opacity="0.5"/>
<circle cx="374.997" cy="709.517" r="1.07754" fill="white" fill-opacity="0.5"/>
<circle cx="507.928" cy="669.448" r="1.00844" fill="white" fill-opacity="0.3"/>
<circle cx="456.092" cy="866.612" r="1.17266" fill="white" fill-opacity="0.5"/>
<circle cx="197.097" cy="932.617" r="1.17785" fill="white" fill-opacity="0.3"/>
<circle cx="78.0064" cy="942.527" r="1.08721" fill="white" fill-opacity="0.5"/>
<circle cx="186.096" cy="288.617" r="1.17726" fill="white" fill-opacity="0.5"/>
<circle cx="120.235" cy="859.755" r="1.31547" fill="white" fill-opacity="0.3"/>
<circle cx="469.41" cy="779.931" r="1.49115" fill="white" fill-opacity="0.4"/>
<circle cx="512.121" cy="387.641" r="1.20183" fill="white" fill-opacity="0.6"/>
<circle cx="565.985" cy="158.505" r="1.06572" fill="white" fill-opacity="0.5"/>
<circle cx="283.113" cy="884.633" r="1.19338" fill="white" fill-opacity="0.4"/>
<circle cx="77.3993" cy="636.92" r="1.48012" fill="white" fill-opacity="0.5"/>
<circle cx="696.383" cy="923.903" r="1.46334" fill="white" fill-opacity="0.6"/>
<circle cx="461.245" cy="959.765" r="1.32582" fill="white" fill-opacity="0.6"/>
<circle cx="598.197" cy="879.718" r="1.27805" fill="white" fill-opacity="0.3"/>
<circle cx="276.091" cy="409.612" r="1.17218" fill="white" fill-opacity="0.3"/>
<circle cx="699.054" cy="322.574" r="1.13457" fill="white" fill-opacity="0.5"/>
<circle cx="71.1511" cy="263.671" r="1.23186" fill="white" fill-opacity="0.4"/>
<circle cx="454.085" cy="377.605" r="1.16539" fill="white" fill-opacity="0.5"/>
<circle cx="293.212" cy="472.732" r="1.29264" fill="white" fill-opacity="0.4"/>
<circle cx="258.388" cy="876.909" r="1.46912" fill="white" fill-opacity="0.6"/>
<circle cx="295.972" cy="974.492" r="1.05238" fill="white" fill-opacity="0.4"/>
<circle cx="42.9235" cy="757.444" r="1.00432" fill="white" fill-opacity="0.5"/>
<circle cx="324.094" cy="965.615" r="1.1751" fill="white" fill-opacity="0.5"/>
<circle cx="417.132" cy="347.653" r="1.21317" fill="white" fill-opacity="0.6"/>
<circle cx="149.35" cy="820.87" r="1.43045" fill="white" fill-opacity="0.4"/>
<circle cx="258.37" cy="950.89" r="1.45086" fill="white" fill-opacity="0.4"/>
<circle cx="196.98" cy="745.5" r="1.06062" fill="white" fill-opacity="0.4"/>
<circle cx="200.128" cy="764.649" r="1.20917" fill="white" fill-opacity="0.3"/>
<circle cx="636.058" cy="894.578" r="1.13885" fill="white" fill-opacity="0.5"/>
<circle cx="578.36" cy="644.88" r="1.44057" fill="white" fill-opacity="0.6"/>
<circle cx="547.253" cy="118.773" r="1.33333" fill="white" fill-opacity="0.6"/>
<circle cx="337.037" cy="756.557" r="1.11747" fill="white" fill-opacity="0.3"/>
<circle cx="141.371" cy="805.891" r="1.45144" fill="white" fill-opacity="0.6"/>
<circle cx="385.096" cy="600.616" r="1.17678" fill="white" fill-opacity="0.3"/>
<circle cx="79.9363" cy="929.457" r="1.01715" fill="white" fill-opacity="0.6"/>
<circle cx="222.094" cy="894.614" r="1.1745" fill="white" fill-opacity="0.5"/>
<circle cx="667.324" cy="412.844" r="1.40476" fill="white" fill-opacity="0.4"/>
<circle cx="119.279" cy="524.799" r="1.35933" fill="white" fill-opacity="0.5"/>
<circle cx="155.353" cy="612.873" r="1.43399" fill="white" fill-opacity="0.4"/>
<circle cx="47.1565" cy="842.677" r="1.23736" fill="white" fill-opacity="0.5"/>
<circle cx="459.276" cy="771.797" r="1.35705" fill="white" fill-opacity="0.3"/>
<circle cx="129.162" cy="229.683" r="1.24327" fill="white" fill-opacity="0.4"/>
<circle cx="675.282" cy="538.802" r="1.36254" fill="white" fill-opacity="0.4"/>
<circle cx="200.278" cy="363.798" r="1.35884" fill="white" fill-opacity="0.4"/>
<circle cx="589.37" cy="638.891" r="1.45126" fill="white" fill-opacity="0.5"/>
<circle cx="666.053" cy="260.574" r="1.13427" fill="white" fill-opacity="0.6"/>
<circle cx="96.3719" cy="282.892" r="1.45268" fill="white" fill-opacity="0.6"/>
<circle cx="255.013" cy="673.533" r="1.09356" fill="white" fill-opacity="0.3"/>
<circle cx="479.357" cy="312.877" r="1.43803" fill="white" fill-opacity="0.6"/>
<circle cx="272.124" cy="663.644" r="1.20475" fill="white" fill-opacity="0.5"/>
<circle cx="562.392" cy="131.913" r="1.47325" fill="white" fill-opacity="0.6"/>
<circle cx="526.294" cy="592.814" r="1.37472" fill="white" fill-opacity="0.3"/>
<circle cx="455.246" cy="877.767" r="1.32718" fill="white" fill-opacity="0.4"/>
<circle cx="460.282" cy="110.802" r="1.36239" fill="white" fill-opacity="0.6"/>
<circle cx="657.244" cy="279.765" r="1.32513" fill="white" fill-opacity="0.3"/>
<circle cx="551.065" cy="342.585" r="1.14593" fill="white" fill-opacity="0.4"/>
<circle cx="288.274" cy="580.794" r="1.35481" fill="white" fill-opacity="0.4"/>
<circle cx="163.208" cy="572.729" r="1.2893" fill="white" fill-opacity="0.4"/>
<circle cx="529.354" cy="851.874" r="1.43492" fill="white" fill-opacity="0.5"/>
<circle cx="583.995" cy="866.515" r="1.0754" fill="white" fill-opacity="0.5"/>
<circle cx="482.062" cy="358.582" r="1.14275" fill="white" fill-opacity="0.6"/>
<circle cx="340.015" cy="242.535" r="1.09544" fill="white" fill-opacity="0.4"/>
<circle cx="660.382" cy="135.902" r="1.46297" fill="white" fill-opacity="0.4"/>
<circle cx="487.1" cy="638.62" r="1.18071" fill="white" fill-opacity="0.6"/>
<circle cx="706.984" cy="921.504" r="1.0644" fill="white" fill-opacity="0.5"/>
<circle cx="512.239" cy="196.759" r="1.31986" fill="white" fill-opacity="0.5"/>
<circle cx="1.01543" cy="340.536" r="1.09624" fill="white" fill-opacity="0.6"/>
<circle cx="449.349" cy="743.87" r="1.43016" fill="white" fill-opacity="0.6"/>
<circle cx="82.1217" cy="585.642" r="1.20254" fill="white" fill-opacity="0.5"/>
<circle cx="619.279" cy="321.799" r="1.35933" fill="white" fill-opacity="0.5"/>
<circle cx="165.203" cy="149.724" r="1.2843" fill="white" fill-opacity="0.6"/>
<circle cx="271.276" cy="424.796" r="1.35681" fill="white" fill-opacity="0.5"/>
<circle cx="332.411" cy="311.931" r="1.49184" fill="white" fill-opacity="0.5"/>
<circle cx="359.147" cy="384.668" r="1.22817" fill="white" fill-opacity="0.6"/>
<circle cx="260.31" cy="643.83" r="1.39063" fill="white" fill-opacity="0.4"/>
<circle cx="243.194" cy="311.715" r="1.27512" fill="white" fill-opacity="0.5"/>
<circle cx="403.089" cy="161.609" r="1.16968" fill="white" fill-opacity="0.5"/>
<circle cx="186.236" cy="107.756" r="1.31634" fill="white" fill-opacity="0.5"/>
<circle cx="65.9258" cy="680.446" r="1.00663" fill="white" fill-opacity="0.3"/>
<circle cx="122.17" cy="140.69" r="1.25049" fill="white" fill-opacity="0.4"/>
<circle cx="162.386" cy="984.906" r="1.46693" fill="white" fill-opacity="0.5"/>
<circle cx="298.361" cy="932.881" r="1.44196" fill="white" fill-opacity="0.6"/>
<circle cx="345.034" cy="786.555" r="1.11529" fill="white" fill-opacity="0.5"/>
<circle cx="113.956" cy="386.477" r="1.03721" fill="white" fill-opacity="0.4"/>
<circle cx="431.019" cy="97.5395" r="1.10002" fill="white" fill-opacity="0.6"/>
<circle cx="612.243" cy="182.764" r="1.32409" fill="white" fill-opacity="0.4"/>
<circle cx="604.237" cy="211.757" r="1.31759" fill="white" fill-opacity="0.4"/>
<circle cx="401.097" cy="665.617" r="1.1778" fill="white" fill-opacity="0.6"/>
<circle cx="62.933" cy="742.453" r="1.01384" fill="white" fill-opacity="0.4"/>
<circle cx="440.249" cy="909.77" r="1.33024" fill="white" fill-opacity="0.3"/>
<circle cx="303" cy="972.52" r="1.08043" fill="white" fill-opacity="0.4"/>
<circle cx="374.267" cy="267.788" r="1.34809" fill="white" fill-opacity="0.6"/>
<circle cx="135.111" cy="216.631" r="1.1919" fill="white" fill-opacity="0.3"/>
<circle cx="232.352" cy="315.872" r="1.43301" fill="white" fill-opacity="0.5"/>
<circle cx="619.98" cy="908.5" r="1.06096" fill="white" fill-opacity="0.6"/>
<circle cx="401.955" cy="655.475" r="1.03584" fill="white" fill-opacity="0.3"/>
<circle cx="232.179" cy="744.699" r="1.26" fill="white" fill-opacity="0.4"/>
<circle cx="160.304" cy="728.824" r="1.38462" fill="white" fill-opacity="0.6"/>
<circle cx="556.997" cy="312.517" r="1.07751" fill="white" fill-opacity="0.5"/>
<circle cx="651.991" cy="794.512" r="1.07221" fill="white" fill-opacity="0.6"/>
<circle cx="372.135" cy="324.655" r="1.21556" fill="white" fill-opacity="0.5"/>
<circle cx="666.971" cy="958.492" r="1.05226" fill="white" fill-opacity="0.4"/>
<circle cx="66.2518" cy="495.772" r="1.33256" fill="white" fill-opacity="0.4"/>
<circle cx="493.955" cy="720.476" r="1.03609" fill="white" fill-opacity="0.4"/>
<circle cx="522.149" cy="961.669" r="1.22981" fill="white" fill-opacity="0.4"/>
<circle cx="519.322" cy="447.842" r="1.40248" fill="white" fill-opacity="0.4"/>
<circle cx="636.988" cy="217.508" r="1.06867" fill="white" fill-opacity="0.5"/>
<circle cx="662.331" cy="128.851" r="1.41147" fill="white" fill-opacity="0.5"/>
<circle cx="27.1668" cy="584.687" r="1.24765" fill="white" fill-opacity="0.3"/>
<circle cx="717.029" cy="582.549" r="1.10946" fill="white" fill-opacity="0.4"/>
<circle cx="167.227" cy="341.747" r="1.30746" fill="white" fill-opacity="0.3"/>
<circle cx="26.0811" cy="977.601" r="1.16186" fill="white" fill-opacity="0.3"/>
<circle cx="199.958" cy="230.478" r="1.03843" fill="white" fill-opacity="0.3"/>
<circle cx="395.971" cy="895.491" r="1.0516" fill="white" fill-opacity="0.6"/>
<circle cx="272.305" cy="343.825" r="1.38595" fill="white" fill-opacity="0.5"/>
<circle cx="371.997" cy="773.518" r="1.0781" fill="white" fill-opacity="0.5"/>
<circle cx="401.2" cy="757.72" r="1.28056" fill="white" fill-opacity="0.4"/>
<circle cx="278.923" cy="224.443" r="1.00334" fill="white" fill-opacity="0.6"/>
<circle cx="157.222" cy="400.743" r="1.30328" fill="white" fill-opacity="0.3"/>
<circle cx="483.16" cy="487.68" r="1.24099" fill="white" fill-opacity="0.5"/>
<circle cx="441.394" cy="110.914" r="1.47446" fill="white" fill-opacity="0.6"/>
<circle cx="432.165" cy="780.685" r="1.24598" fill="white" fill-opacity="0.4"/>
<circle cx="282.088" cy="386.609" r="1.16916" fill="white" fill-opacity="0.5"/>
<g opacity="0.1">
<g clip-path="url(#clip1_2006_14394)">
<path d="M48.8242 -17.8408V1300.74" stroke="white"/>
<path d="M112.824 -17.8408V1300.74" stroke="white"/>
<path d="M176.824 -17.8408V1300.74" stroke="white"/>
<path d="M240.824 -17.8408V1300.74" stroke="white"/>
<path d="M304.824 -17.8408V1300.74" stroke="white"/>
<path d="M368.824 -17.8408V1300.74" stroke="white"/>
<path d="M432.824 -17.8408V1300.74" stroke="white"/>
<path d="M496.824 -17.8408V1300.74" stroke="white"/>
<path d="M560.824 -17.8408V1300.74" stroke="white"/>
<path d="M624.824 -17.8408V1300.74" stroke="white"/>
<path d="M688.824 -17.8408V1300.74" stroke="white"/>
</g>
<g clip-path="url(#clip2_2006_14394)">
<path d="M-463.176 46.1592L1264.82 46.1592" stroke="white"/>
<path d="M-463.176 110.159L1264.82 110.159" stroke="white"/>
<path d="M-463.176 174.159L1264.82 174.159" stroke="white"/>
<path d="M-463.176 238.159L1264.82 238.159" stroke="white"/>
<path d="M-463.176 302.159L1264.82 302.159" stroke="white"/>
<path d="M-463.176 366.159L1264.82 366.159" stroke="white"/>
<path d="M-463.176 430.159L1264.82 430.159" stroke="white"/>
<path d="M-463.176 494.159L1264.82 494.159" stroke="white"/>
<path d="M-463.176 558.159L1264.82 558.159" stroke="white"/>
<path d="M-463.176 622.159L1264.82 622.159" stroke="white"/>
<path d="M-463.176 686.159L1264.82 686.159" stroke="white"/>
<path d="M-463.176 750.159L1264.82 750.159" stroke="white"/>
<path d="M-463.176 814.159L1264.82 814.159" stroke="white"/>
<path d="M-463.176 878.159L1264.82 878.159" stroke="white"/>
<path d="M-463.176 942.159L1264.82 942.159" stroke="white"/>
<path d="M-463.176 1006.16L1264.82 1006.16" stroke="white"/>
</g>
</g>
</g>
</g>
<defs>
<radialGradient id="paint0_diamond_2006_14394" cx="0" cy="0" r="1" gradientUnits="userSpaceOnUse" gradientTransform="translate(405.545 458.645) rotate(90) scale(636.449 1480.67)">
<stop stop-color="white"/>
<stop offset="1" stop-color="#D9D9D9" stop-opacity="0"/>
</radialGradient>
<clipPath id="clip0_2006_14394">
<rect width="1437" height="1024" fill="white"/>
</clipPath>
<clipPath id="clip1_2006_14394">
<rect width="1728" height="1117" fill="white" transform="translate(-463.176 -17.8408)"/>
</clipPath>
<clipPath id="clip2_2006_14394">
<rect width="1728" height="1117" fill="white" transform="translate(-463.176 -17.8408)"/>
</clipPath>
</defs>
</svg>
