<svg width="1600" height="900" viewBox="0 0 1600 900" fill="none" xmlns="http://www.w3.org/2000/svg">
<g clip-path="url(#clip0_2028_16392)">
<g opacity="0.5" clip-path="url(#clip1_2028_16392)">
<mask id="mask0_2028_16392" style="mask-type:alpha" maskUnits="userSpaceOnUse" x="-75" y="-133" width="1758" height="1169">
<rect x="-75" y="-133" width="1757.09" height="1168.81" fill="url(#paint0_diamond_2028_16392)"/>
</mask>
<g mask="url(#mask0_2028_16392)">
<circle cx="607.101" cy="688.622" r="1.1824" fill="white" fill-opacity="0.5"/>
<circle cx="814.18" cy="865.701" r="1.26147" fill="white" fill-opacity="0.4"/>
<circle cx="801.068" cy="308.589" r="1.1494" fill="white" fill-opacity="0.5"/>
<circle cx="194.382" cy="562.903" r="1.46308" fill="white" fill-opacity="0.3"/>
<circle cx="778.094" cy="479.614" r="1.17479" fill="white" fill-opacity="0.5"/>
<circle cx="995.967" cy="216.487" r="1.04764" fill="white" fill-opacity="0.4"/>
<circle cx="990.941" cy="280.462" r="1.02232" fill="white" fill-opacity="0.5"/>
<circle cx="81.9995" cy="602.52" r="1.08059" fill="white" fill-opacity="0.6"/>
<circle cx="746.378" cy="109.899" r="1.45954" fill="white" fill-opacity="0.4"/>
<circle cx="323.102" cy="790.622" r="1.18288" fill="white" fill-opacity="0.4"/>
<circle cx="653.333" cy="726.854" r="1.41413" fill="white" fill-opacity="0.5"/>
<circle cx="74.969" cy="500.49" r="1.05007" fill="white" fill-opacity="0.6"/>
<circle cx="788.187" cy="791.707" r="1.26777" fill="white" fill-opacity="0.4"/>
<circle cx="102.302" cy="864.823" r="1.38322" fill="white" fill-opacity="0.4"/>
<circle cx="95.9329" cy="202.453" r="1.01394" fill="white" fill-opacity="0.5"/>
<circle cx="297.085" cy="384.606" r="1.1664" fill="white" fill-opacity="0.6"/>
<circle cx="1127.04" cy="544.565" r="1.12581" fill="white" fill-opacity="0.4"/>
<circle cx="93.2063" cy="300.727" r="1.2874" fill="white" fill-opacity="0.5"/>
<circle cx="957.077" cy="616.598" r="1.15816" fill="white" fill-opacity="0.6"/>
<circle cx="1057.22" cy="822.736" r="1.29685" fill="white" fill-opacity="0.5"/>
<circle cx="377.996" cy="709.517" r="1.07754" fill="white" fill-opacity="0.5"/>
<circle cx="510.927" cy="669.448" r="1.00844" fill="white" fill-opacity="0.3"/>
<circle cx="459.092" cy="866.612" r="1.17266" fill="white" fill-opacity="0.5"/>
<circle cx="189.096" cy="288.617" r="1.17726" fill="white" fill-opacity="0.5"/>
<circle cx="920.066" cy="353.586" r="1.14691" fill="white" fill-opacity="0.4"/>
<circle cx="825.205" cy="781.726" r="1.28612" fill="white" fill-opacity="0.5"/>
<circle cx="123.234" cy="859.755" r="1.31547" fill="white" fill-opacity="0.3"/>
<circle cx="1036.31" cy="289.835" r="1.39581" fill="white" fill-opacity="0.6"/>
<circle cx="966.372" cy="252.892" r="1.453" fill="white" fill-opacity="0.4"/>
<circle cx="854.376" cy="870.897" r="1.45743" fill="white" fill-opacity="0.5"/>
<circle cx="472.41" cy="779.931" r="1.49115" fill="white" fill-opacity="0.4"/>
<circle cx="1094.22" cy="895.745" r="1.30506" fill="white" fill-opacity="0.4"/>
<circle cx="515.121" cy="387.641" r="1.20183" fill="white" fill-opacity="0.6"/>
<circle cx="568.985" cy="158.505" r="1.06572" fill="white" fill-opacity="0.5"/>
<circle cx="286.112" cy="884.633" r="1.19338" fill="white" fill-opacity="0.4"/>
<circle cx="80.3991" cy="636.92" r="1.48012" fill="white" fill-opacity="0.5"/>
<circle cx="1052.94" cy="858.463" r="1.02371" fill="white" fill-opacity="0.5"/>
<circle cx="1062.24" cy="869.757" r="1.31746" fill="white" fill-opacity="0.4"/>
<circle cx="1071.27" cy="400.791" r="1.35118" fill="white" fill-opacity="0.4"/>
<circle cx="797.396" cy="659.917" r="1.47711" fill="white" fill-opacity="0.4"/>
<circle cx="601.197" cy="879.718" r="1.27805" fill="white" fill-opacity="0.3"/>
<circle cx="279.091" cy="409.612" r="1.17218" fill="white" fill-opacity="0.3"/>
<circle cx="702.054" cy="322.574" r="1.13457" fill="white" fill-opacity="0.5"/>
<circle cx="74.1508" cy="263.671" r="1.23186" fill="white" fill-opacity="0.4"/>
<circle cx="738.226" cy="774.746" r="1.30682" fill="white" fill-opacity="0.5"/>
<circle cx="1043.41" cy="653.933" r="1.49334" fill="white" fill-opacity="0.6"/>
<circle cx="457.084" cy="377.605" r="1.16539" fill="white" fill-opacity="0.5"/>
<circle cx="960.386" cy="728.906" r="1.46668" fill="white" fill-opacity="0.4"/>
<circle cx="1104.98" cy="134.505" r="1.06594" fill="white" fill-opacity="0.5"/>
<circle cx="296.212" cy="472.732" r="1.29264" fill="white" fill-opacity="0.4"/>
<circle cx="261.388" cy="876.909" r="1.46912" fill="white" fill-opacity="0.6"/>
<circle cx="45.9233" cy="757.444" r="1.00432" fill="white" fill-opacity="0.5"/>
<circle cx="871.138" cy="488.659" r="1.21927" fill="white" fill-opacity="0.3"/>
<circle cx="420.132" cy="347.653" r="1.21317" fill="white" fill-opacity="0.6"/>
<circle cx="152.349" cy="820.87" r="1.43045" fill="white" fill-opacity="0.4"/>
<circle cx="1083.97" cy="89.4925" r="1.05301" fill="white" fill-opacity="0.4"/>
<circle cx="1018.25" cy="744.775" r="1.33537" fill="white" fill-opacity="0.4"/>
<circle cx="1093.18" cy="136.696" r="1.25691" fill="white" fill-opacity="0.5"/>
<circle cx="199.98" cy="745.5" r="1.06062" fill="white" fill-opacity="0.4"/>
<circle cx="1117.21" cy="825.728" r="1.28893" fill="white" fill-opacity="0.5"/>
<circle cx="203.128" cy="764.649" r="1.20917" fill="white" fill-opacity="0.3"/>
<circle cx="639.058" cy="894.578" r="1.13885" fill="white" fill-opacity="0.5"/>
<circle cx="581.359" cy="644.88" r="1.44057" fill="white" fill-opacity="0.6"/>
<circle cx="550.252" cy="118.773" r="1.33333" fill="white" fill-opacity="0.6"/>
<circle cx="340.036" cy="756.557" r="1.11747" fill="white" fill-opacity="0.3"/>
<circle cx="144.37" cy="805.891" r="1.45144" fill="white" fill-opacity="0.6"/>
<circle cx="783.373" cy="736.893" r="1.45393" fill="white" fill-opacity="0.5"/>
<circle cx="388.096" cy="600.616" r="1.17678" fill="white" fill-opacity="0.3"/>
<circle cx="225.093" cy="894.614" r="1.1745" fill="white" fill-opacity="0.5"/>
<circle cx="902.187" cy="102.707" r="1.26766" fill="white" fill-opacity="0.5"/>
<circle cx="670.324" cy="412.844" r="1.40476" fill="white" fill-opacity="0.4"/>
<circle cx="122.278" cy="524.799" r="1.35933" fill="white" fill-opacity="0.5"/>
<circle cx="936.946" cy="278.466" r="1.02698" fill="white" fill-opacity="0.3"/>
<circle cx="158.353" cy="612.873" r="1.43399" fill="white" fill-opacity="0.4"/>
<circle cx="50.1563" cy="842.677" r="1.23736" fill="white" fill-opacity="0.5"/>
<circle cx="462.276" cy="771.797" r="1.35705" fill="white" fill-opacity="0.3"/>
<circle cx="132.162" cy="229.683" r="1.24327" fill="white" fill-opacity="0.4"/>
<circle cx="916.046" cy="740.567" r="1.12721" fill="white" fill-opacity="0.3"/>
<circle cx="977.929" cy="534.45" r="1.01012" fill="white" fill-opacity="0.3"/>
<circle cx="678.281" cy="538.802" r="1.36254" fill="white" fill-opacity="0.4"/>
<circle cx="820.102" cy="144.623" r="1.18329" fill="white" fill-opacity="0.4"/>
<circle cx="203.278" cy="363.798" r="1.35884" fill="white" fill-opacity="0.4"/>
<circle cx="592.37" cy="638.891" r="1.45126" fill="white" fill-opacity="0.5"/>
<circle cx="669.053" cy="260.574" r="1.13427" fill="white" fill-opacity="0.6"/>
<circle cx="99.3716" cy="282.892" r="1.45268" fill="white" fill-opacity="0.6"/>
<circle cx="741.411" cy="538.932" r="1.49244" fill="white" fill-opacity="0.4"/>
<circle cx="726.954" cy="226.475" r="1.03555" fill="white" fill-opacity="0.4"/>
<circle cx="258.013" cy="673.533" r="1.09356" fill="white" fill-opacity="0.3"/>
<circle cx="894.08" cy="550.6" r="1.16082" fill="white" fill-opacity="0.5"/>
<circle cx="789.213" cy="165.734" r="1.29419" fill="white" fill-opacity="0.4"/>
<circle cx="482.357" cy="312.877" r="1.43803" fill="white" fill-opacity="0.6"/>
<circle cx="1074.37" cy="829.895" r="1.45588" fill="white" fill-opacity="0.5"/>
<circle cx="811.352" cy="730.873" r="1.43336" fill="white" fill-opacity="0.4"/>
<circle cx="908.412" cy="478.933" r="1.49348" fill="white" fill-opacity="0.6"/>
<circle cx="275.124" cy="663.644" r="1.20475" fill="white" fill-opacity="0.5"/>
<circle cx="737.372" cy="622.893" r="1.45309" fill="white" fill-opacity="0.5"/>
<circle cx="565.392" cy="131.913" r="1.47325" fill="white" fill-opacity="0.6"/>
<circle cx="943.017" cy="341.538" r="1.0985" fill="white" fill-opacity="0.5"/>
<circle cx="885.251" cy="454.771" r="1.33175" fill="white" fill-opacity="0.4"/>
<circle cx="529.294" cy="592.814" r="1.37472" fill="white" fill-opacity="0.3"/>
<circle cx="1126.1" cy="731.621" r="1.18151" fill="white" fill-opacity="0.4"/>
<circle cx="458.246" cy="877.767" r="1.32718" fill="white" fill-opacity="0.4"/>
<circle cx="890.966" cy="170.487" r="1.04734" fill="white" fill-opacity="0.5"/>
<circle cx="463.281" cy="110.802" r="1.36239" fill="white" fill-opacity="0.6"/>
<circle cx="837.054" cy="179.574" r="1.13462" fill="white" fill-opacity="0.5"/>
<circle cx="660.244" cy="279.765" r="1.32513" fill="white" fill-opacity="0.3"/>
<circle cx="554.065" cy="342.585" r="1.14593" fill="white" fill-opacity="0.4"/>
<circle cx="291.274" cy="580.794" r="1.35481" fill="white" fill-opacity="0.4"/>
<circle cx="166.208" cy="572.729" r="1.2893" fill="white" fill-opacity="0.4"/>
<circle cx="532.354" cy="851.874" r="1.43492" fill="white" fill-opacity="0.5"/>
<circle cx="586.994" cy="866.515" r="1.0754" fill="white" fill-opacity="0.5"/>
<circle cx="900.33" cy="581.851" r="1.41111" fill="white" fill-opacity="0.5"/>
<circle cx="485.062" cy="358.582" r="1.14275" fill="white" fill-opacity="0.6"/>
<circle cx="343.014" cy="242.535" r="1.09544" fill="white" fill-opacity="0.4"/>
<circle cx="905.983" cy="123.503" r="1.06373" fill="white" fill-opacity="0.5"/>
<circle cx="663.382" cy="135.902" r="1.46297" fill="white" fill-opacity="0.4"/>
<circle cx="490.1" cy="638.62" r="1.18071" fill="white" fill-opacity="0.6"/>
<circle cx="954.331" cy="462.851" r="1.41155" fill="white" fill-opacity="0.5"/>
<circle cx="515.239" cy="196.759" r="1.31986" fill="white" fill-opacity="0.5"/>
<circle cx="4.01518" cy="340.536" r="1.09624" fill="white" fill-opacity="0.6"/>
<circle cx="965.33" cy="788.851" r="1.41135" fill="white" fill-opacity="0.6"/>
<circle cx="1126.26" cy="686.783" r="1.34345" fill="white" fill-opacity="0.4"/>
<circle cx="777.12" cy="150.64" r="1.20085" fill="white" fill-opacity="0.4"/>
<circle cx="452.349" cy="743.87" r="1.43016" fill="white" fill-opacity="0.6"/>
<circle cx="85.1215" cy="585.642" r="1.20254" fill="white" fill-opacity="0.5"/>
<circle cx="734.233" cy="393.753" r="1.31388" fill="white" fill-opacity="0.4"/>
<circle cx="1074.31" cy="333.828" r="1.38849" fill="white" fill-opacity="0.3"/>
<circle cx="622.278" cy="321.799" r="1.35933" fill="white" fill-opacity="0.5"/>
<circle cx="168.203" cy="149.724" r="1.2843" fill="white" fill-opacity="0.6"/>
<circle cx="853.053" cy="544.574" r="1.13446" fill="white" fill-opacity="0.4"/>
<circle cx="1111.16" cy="879.678" r="1.23853" fill="white" fill-opacity="0.4"/>
<circle cx="274.276" cy="424.796" r="1.35681" fill="white" fill-opacity="0.5"/>
<circle cx="335.411" cy="311.931" r="1.49184" fill="white" fill-opacity="0.5"/>
<circle cx="746.269" cy="837.789" r="1.34997" fill="white" fill-opacity="0.6"/>
<circle cx="362.147" cy="384.668" r="1.22817" fill="white" fill-opacity="0.6"/>
<circle cx="263.31" cy="643.83" r="1.39063" fill="white" fill-opacity="0.4"/>
<circle cx="246.194" cy="311.715" r="1.27512" fill="white" fill-opacity="0.5"/>
<circle cx="406.089" cy="161.609" r="1.16968" fill="white" fill-opacity="0.5"/>
<circle cx="770.94" cy="331.461" r="1.02114" fill="white" fill-opacity="0.3"/>
<circle cx="189.235" cy="107.756" r="1.31634" fill="white" fill-opacity="0.5"/>
<circle cx="883.261" cy="719.781" r="1.34193" fill="white" fill-opacity="0.6"/>
<circle cx="68.9256" cy="680.446" r="1.00663" fill="white" fill-opacity="0.3"/>
<circle cx="125.169" cy="140.69" r="1.25049" fill="white" fill-opacity="0.4"/>
<circle cx="869.218" cy="203.739" r="1.2993" fill="white" fill-opacity="0.5"/>
<circle cx="348.034" cy="786.555" r="1.11529" fill="white" fill-opacity="0.5"/>
<circle cx="116.956" cy="386.477" r="1.03721" fill="white" fill-opacity="0.4"/>
<circle cx="434.019" cy="97.5395" r="1.10002" fill="white" fill-opacity="0.6"/>
<circle cx="615.243" cy="182.764" r="1.32409" fill="white" fill-opacity="0.4"/>
<circle cx="607.237" cy="211.757" r="1.31759" fill="white" fill-opacity="0.4"/>
<circle cx="404.097" cy="665.617" r="1.1778" fill="white" fill-opacity="0.6"/>
<circle cx="828.053" cy="806.573" r="1.13361" fill="white" fill-opacity="0.3"/>
<circle cx="65.9328" cy="742.453" r="1.01384" fill="white" fill-opacity="0.4"/>
<circle cx="1035.09" cy="596.608" r="1.16817" fill="white" fill-opacity="0.5"/>
<circle cx="825.133" cy="236.654" r="1.21442" fill="white" fill-opacity="0.6"/>
<circle cx="377.267" cy="267.788" r="1.34809" fill="white" fill-opacity="0.6"/>
<circle cx="1079.03" cy="731.546" r="1.10613" fill="white" fill-opacity="0.4"/>
<circle cx="810.234" cy="267.755" r="1.31508" fill="white" fill-opacity="0.5"/>
<circle cx="138.111" cy="216.631" r="1.1919" fill="white" fill-opacity="0.3"/>
<circle cx="937.379" cy="674.9" r="1.4603" fill="white" fill-opacity="0.5"/>
<circle cx="235.352" cy="315.872" r="1.43301" fill="white" fill-opacity="0.5"/>
<circle cx="854.115" cy="222.635" r="1.19579" fill="white" fill-opacity="0.5"/>
<circle cx="404.955" cy="655.475" r="1.03584" fill="white" fill-opacity="0.3"/>
<circle cx="235.179" cy="744.699" r="1.26" fill="white" fill-opacity="0.4"/>
<circle cx="936.33" cy="695.851" r="1.41148" fill="white" fill-opacity="0.4"/>
<circle cx="927.349" cy="252.869" r="1.42965" fill="white" fill-opacity="0.4"/>
<circle cx="163.304" cy="728.824" r="1.38462" fill="white" fill-opacity="0.6"/>
<circle cx="753.276" cy="638.796" r="1.35695" fill="white" fill-opacity="0.6"/>
<circle cx="559.996" cy="312.517" r="1.07751" fill="white" fill-opacity="0.5"/>
<circle cx="654.991" cy="794.512" r="1.07221" fill="white" fill-opacity="0.6"/>
<circle cx="375.134" cy="324.655" r="1.21556" fill="white" fill-opacity="0.5"/>
<circle cx="69.2515" cy="495.772" r="1.33256" fill="white" fill-opacity="0.4"/>
<circle cx="496.955" cy="720.476" r="1.03609" fill="white" fill-opacity="0.4"/>
<circle cx="773.364" cy="672.885" r="1.44546" fill="white" fill-opacity="0.4"/>
<circle cx="522.321" cy="447.842" r="1.40248" fill="white" fill-opacity="0.4"/>
<circle cx="639.988" cy="217.508" r="1.06867" fill="white" fill-opacity="0.5"/>
<circle cx="665.33" cy="128.851" r="1.41147" fill="white" fill-opacity="0.5"/>
<circle cx="30.1666" cy="584.687" r="1.24765" fill="white" fill-opacity="0.3"/>
<circle cx="720.028" cy="582.549" r="1.10946" fill="white" fill-opacity="0.4"/>
<circle cx="170.226" cy="341.747" r="1.30746" fill="white" fill-opacity="0.3"/>
<circle cx="1111.99" cy="271.511" r="1.07201" fill="white" fill-opacity="0.4"/>
<circle cx="202.957" cy="230.478" r="1.03843" fill="white" fill-opacity="0.3"/>
<circle cx="398.971" cy="895.491" r="1.0516" fill="white" fill-opacity="0.6"/>
<circle cx="275.305" cy="343.825" r="1.38595" fill="white" fill-opacity="0.5"/>
<circle cx="994.174" cy="299.695" r="1.25537" fill="white" fill-opacity="0.4"/>
<circle cx="374.997" cy="773.518" r="1.0781" fill="white" fill-opacity="0.5"/>
<circle cx="404.2" cy="757.72" r="1.28056" fill="white" fill-opacity="0.4"/>
<circle cx="281.922" cy="224.443" r="1.00334" fill="white" fill-opacity="0.6"/>
<circle cx="1057.95" cy="381.471" r="1.03142" fill="white" fill-opacity="0.3"/>
<circle cx="160.222" cy="400.743" r="1.30328" fill="white" fill-opacity="0.3"/>
<circle cx="486.16" cy="487.68" r="1.24099" fill="white" fill-opacity="0.5"/>
<circle cx="1069.18" cy="684.705" r="1.26547" fill="white" fill-opacity="0.4"/>
<circle cx="1126.07" cy="259.593" r="1.15373" fill="white" fill-opacity="0.3"/>
<circle cx="444.393" cy="110.914" r="1.47446" fill="white" fill-opacity="0.6"/>
<circle cx="985.208" cy="187.729" r="1.28923" fill="white" fill-opacity="0.4"/>
<circle cx="435.165" cy="780.685" r="1.24598" fill="white" fill-opacity="0.4"/>
<circle cx="285.088" cy="386.609" r="1.16916" fill="white" fill-opacity="0.5"/>
<g opacity="0.1">
<g clip-path="url(#clip2_2028_16392)">
<path d="M5.82422 -78.8408V1239.74" stroke="white"/>
<path d="M69.8242 -78.8408V1239.74" stroke="white"/>
<path d="M133.824 -78.8408V1239.74" stroke="white"/>
<path d="M197.824 -78.8408V1239.74" stroke="white"/>
<path d="M261.824 -78.8408V1239.74" stroke="white"/>
<path d="M325.824 -78.8408V1239.74" stroke="white"/>
<path d="M389.824 -78.8408V1239.74" stroke="white"/>
<path d="M453.824 -78.8408V1239.74" stroke="white"/>
<path d="M517.824 -78.8408V1239.74" stroke="white"/>
<path d="M581.824 -78.8408V1239.74" stroke="white"/>
<path d="M645.824 -78.8408V1239.74" stroke="white"/>
<path d="M709.824 -78.8408V1239.74" stroke="white"/>
<path d="M773.824 -78.8408V1239.74" stroke="white"/>
<path d="M837.824 -78.8408V1239.74" stroke="white"/>
<path d="M901.824 -78.8408V1239.74" stroke="white"/>
<path d="M965.824 -78.8408V1239.74" stroke="white"/>
<path d="M1029.82 -78.8408V1239.74" stroke="white"/>
<path d="M1093.82 -78.8408V1239.74" stroke="white"/>
<path d="M1157.82 -78.8408V1239.74" stroke="white"/>
<path d="M1221.82 -78.8408V1239.74" stroke="white"/>
<path d="M1285.82 -78.8408V1239.74" stroke="white"/>
<path d="M1349.82 -78.8408V1239.74" stroke="white"/>
</g>
<g clip-path="url(#clip3_2028_16392)">
<path d="M-378.176 49.1592L1349.82 49.1592" stroke="white"/>
<path d="M-378.176 113.159L1349.82 113.159" stroke="white"/>
<path d="M-378.176 177.159L1349.82 177.159" stroke="white"/>
<path d="M-378.176 241.159L1349.82 241.159" stroke="white"/>
<path d="M-378.176 305.159L1349.82 305.159" stroke="white"/>
<path d="M-378.176 369.159L1349.82 369.159" stroke="white"/>
<path d="M-378.176 433.159L1349.82 433.159" stroke="white"/>
<path d="M-378.176 497.159L1349.82 497.159" stroke="white"/>
<path d="M-378.176 561.159L1349.82 561.159" stroke="white"/>
<path d="M-378.176 625.159L1349.82 625.159" stroke="white"/>
<path d="M-378.176 689.159L1349.82 689.159" stroke="white"/>
<path d="M-378.176 753.159L1349.82 753.159" stroke="white"/>
<path d="M-378.176 817.159L1349.82 817.159" stroke="white"/>
<path d="M-378.176 881.159L1349.82 881.159" stroke="white"/>
</g>
</g>
</g>
</g>
<g filter="url(#filter0_f_2028_16392)">
<path d="M1646.45 235.982L787.058 698.286L497.427 -287.912L983.169 -549.214L1646.45 235.982Z" fill="url(#paint1_linear_2028_16392)" fill-opacity="0.1"/>
</g>
</g>
<defs>
<filter id="filter0_f_2028_16392" x="298.728" y="-747.912" width="1546.42" height="1644.9" filterUnits="userSpaceOnUse" color-interpolation-filters="sRGB">
<feFlood flood-opacity="0" result="BackgroundImageFix"/>
<feBlend mode="normal" in="SourceGraphic" in2="BackgroundImageFix" result="shape"/>
<feGaussianBlur stdDeviation="99.3493" result="effect1_foregroundBlur_2028_16392"/>
</filter>
<radialGradient id="paint0_diamond_2028_16392" cx="0" cy="0" r="1" gradientUnits="userSpaceOnUse" gradientTransform="translate(803.545 372.645) rotate(90) scale(636.449 1480.67)">
<stop stop-color="white"/>
<stop offset="1" stop-color="#D9D9D9" stop-opacity="0"/>
</radialGradient>
<linearGradient id="paint1_linear_2028_16392" x1="1216.75" y1="467.134" x2="839.304" y2="-274.838" gradientUnits="userSpaceOnUse">
<stop stop-color="white" stop-opacity="0"/>
<stop offset="1" stop-color="white"/>
</linearGradient>
<clipPath id="clip0_2028_16392">
<rect width="1600" height="900" fill="white"/>
</clipPath>
<clipPath id="clip1_2028_16392">
<rect width="1601" height="901" fill="white" transform="translate(3)"/>
</clipPath>
<clipPath id="clip2_2028_16392">
<rect width="1728" height="1117" fill="white" transform="translate(-378.176 -78.8408)"/>
</clipPath>
<clipPath id="clip3_2028_16392">
<rect width="1728" height="1117" fill="white" transform="translate(-378.176 -78.8408)"/>
</clipPath>
</defs>
</svg>
