<svg width="17" height="17" viewBox="0 0 17 17" fill="none" xmlns="http://www.w3.org/2000/svg">
<path d="M4.52379 7.42187C4.77332 6.66691 5.25491 6.01003 5.89985 5.54496C6.54478 5.07989 7.32012 4.83037 8.11525 4.832C9.01659 4.832 9.83152 5.152 10.4715 5.67573L12.3339 3.81387C11.199 2.82453 9.74459 2.21387 8.11525 2.21387C5.59259 2.21387 3.42085 3.6528 2.37659 5.76053L4.52379 7.42187Z" fill="#EA4335"/>
<path d="M10.2699 11.8206C9.6886 12.1955 8.95047 12.3955 8.11527 12.3955C7.3233 12.3971 6.55089 12.1496 5.90739 11.688C5.26389 11.2263 4.7819 10.574 4.52967 9.82324L2.375 11.459C2.90366 12.529 3.72181 13.4293 4.73651 14.0577C5.7512 14.686 6.92178 15.0172 8.11527 15.0136C9.67953 15.0136 11.1739 14.4574 12.2934 13.4136L10.2705 11.8206H10.2699Z" fill="#34A853"/>
<path d="M12.2934 13.4139C13.464 12.3217 14.224 10.6961 14.224 8.61393C14.224 8.23526 14.1659 7.82833 14.079 7.4502H8.11523V9.92326H11.5478C11.3787 10.7547 10.9238 11.3985 10.2704 11.8209L12.2934 13.4139Z" fill="#4285F4"/>
<path d="M4.52967 9.82368C4.39919 9.43376 4.33291 9.02524 4.33341 8.61408C4.33341 8.19701 4.40007 7.79648 4.52381 7.42208L2.37661 5.76074C1.93734 6.64751 1.7109 7.62449 1.71527 8.61408C1.71527 9.63808 1.95261 10.6034 2.37501 11.4594L4.52967 9.82368Z" fill="#FBBC05"/>
</svg>
