<svg width="16" height="17" viewBox="0 0 16 17" fill="none" xmlns="http://www.w3.org/2000/svg">
<path d="M13.1934 10.4529C11.8201 11.8196 9.85339 12.2396 8.12672 11.6996L4.98672 14.8329C4.76006 15.0662 4.31339 15.2062 3.99339 15.1596L2.54006 14.9596C2.06006 14.8929 1.61339 14.4396 1.54006 13.9596L1.34006 12.5062C1.29339 12.1862 1.44672 11.7396 1.66672 11.5129L4.80006 8.37956C4.26672 6.64622 4.68006 4.67956 6.05339 3.31289C8.02006 1.34622 11.2134 1.34622 13.1867 3.31289C15.1601 5.27956 15.1601 8.48622 13.1934 10.4529Z" stroke="#6C7278" stroke-width="1.5" stroke-miterlimit="10" stroke-linecap="round" stroke-linejoin="round"/>
<path d="M4.59338 12.1602L6.12672 13.6935" stroke="#6C7278" stroke-width="1.5" stroke-miterlimit="10" stroke-linecap="round" stroke-linejoin="round"/>
<path d="M9.66663 7.83301C10.2189 7.83301 10.6666 7.38529 10.6666 6.83301C10.6666 6.28072 10.2189 5.83301 9.66663 5.83301C9.11434 5.83301 8.66663 6.28072 8.66663 6.83301C8.66663 7.38529 9.11434 7.83301 9.66663 7.83301Z" stroke="#6C7278" stroke-width="1.5" stroke-linecap="round" stroke-linejoin="round"/>
</svg>
